<svg version="1.1" xmlns="http://www.w3.org/2000/svg" xmlns:xlink="http://www.w3.org/1999/xlink" width="28.03577" height="64.51944" viewBox="0,0,28.03577,64.51944"><g transform="translate(-225.98212,-155.38776)"><g data-paper-data="{&quot;isPaintingLayer&quot;:true}" fill-rule="nonzero" stroke-linejoin="miter" stroke-miterlimit="10" stroke-dasharray="" stroke-dashoffset="0" style="mix-blend-mode: normal"><path d="M229.73191,218.9072v-31.42632h22.39211v31.42632z" fill="#ffffff" stroke="#e4e4e4" stroke-width="2" stroke-linecap="butt"/><path d="M242.94715,188.33995c0,0 1.07189,-1.81662 1.77429,-1.31654c0.40294,0.28688 0.29806,2.50822 -0.05241,2.73788c-0.91081,0.59685 -1.72188,-1.42135 -1.72188,-1.42135z" fill="#000000" stroke="none" stroke-width="0" stroke-linecap="butt"/><path d="M229.73191,218.9072v-31.42632c0,0 3.94222,0 8.43117,0c0.61303,0 3.35095,11.46667 3.93333,11.46667c1.48794,0 3.19767,-11.46667 4.16667,-11.46667c2.88699,0 5.86094,0 5.86094,0v31.42632z" fill="#191919" stroke="#000000" stroke-width="2" stroke-linecap="butt"/><path d="M241.4426,188.34666c0,-0.55229 0.44771,-1 1,-1c0.55229,0 1,0.44771 1,1c0,0.55229 -0.44771,1 -1,1c-0.55229,0 -1,-0.44771 -1,-1z" fill="#000000" stroke="none" stroke-width="0.5" stroke-linecap="butt"/><path d="M240.34225,189.71962c-0.35047,-0.22966 -0.45534,-2.451 -0.0524,-2.73788c0.7024,-0.50009 1.77429,1.31653 1.77429,1.31653c0,0 -0.81108,2.01819 -1.72188,1.42135z" data-paper-data="{&quot;index&quot;:null}" fill="#000000" stroke="none" stroke-width="0" stroke-linecap="butt"/><path d="M246.72737,197.08887h3.57143" fill="none" stroke="#000000" stroke-width="1" stroke-linecap="round"/><path d="M241.29879,199.23173l-4.71429,-5.71429l0.64286,-1.92857l-1.35714,-1.14286l2.07143,-2.5" fill="#0d0d0d" stroke="#0c0c0c" stroke-width="0" stroke-linecap="round"/><path d="M246.51308,188.44602l2.07143,2.5l-1.35714,1.14285l0.64285,1.92857l-4.71429,5.71428" data-paper-data="{&quot;index&quot;:null}" fill="#0d0d0d" stroke="#0c0c0c" stroke-width="0" stroke-linecap="round"/><path d="M241.95058,203.4103c0,-0.27614 0.22386,-0.5 0.5,-0.5c0.27614,0 0.5,0.22386 0.5,0.5c0,0.27614 -0.22386,0.5 -0.5,0.5c-0.27614,0 -0.5,-0.22386 -0.5,-0.5z" fill="#000000" stroke="none" stroke-width="0.5" stroke-linecap="butt"/><path d="M242.07558,206.9103c0,-0.27614 0.22386,-0.5 0.5,-0.5c0.27614,0 0.5,0.22386 0.5,0.5c0,0.27614 -0.22386,0.5 -0.5,0.5c-0.27614,0 -0.5,-0.22386 -0.5,-0.5z" fill="#000000" stroke="none" stroke-width="0.5" stroke-linecap="butt"/><g><path d="M228.49897,170.2973c0,-6.55256 5.31191,-11.86447 11.86447,-11.86447c6.55257,0 11.86447,5.31191 11.86447,11.86447c0,6.55257 -5.31191,11.86447 -11.86447,11.86447c-6.55257,0 -11.86447,-5.31191 -11.86447,-11.86447z" data-paper-data="{&quot;origPos&quot;:null}" fill="#ffffff" stroke="#e5e5e5" stroke-width="2" stroke-linecap="butt"/><path d="M246.54634,165.11703v9.35789" data-paper-data="{&quot;origPos&quot;:null}" fill="none" stroke="#050019" stroke-width="2" stroke-linecap="round"/><path d="M241.86739,165.11703v9.35789" data-paper-data="{&quot;origPos&quot;:null}" fill="#e60000" stroke="#050019" stroke-width="2" stroke-linecap="round"/><path d="M249.8243,165.87524v0c-0.94956,-0.94956 -1.97203,-1.78801 -3.00355,-2.64761l-0.31499,-0.21092c-0.11713,-0.06017 -0.22352,-0.1383 -0.31554,-0.23075c-1.65634,-0.16434 -3.36001,0.09862 -5.36839,0.59715l-0.65076,1.13882l-0.02069,-0.01182c0.20475,1.9035 -0.35086,3.87057 -2.21424,4.96273c-0.62455,0.36606 -1.24346,0.15354 -1.85002,-0.09202c-0.89694,0.30305 -1.78105,0.49493 -2.73335,0.6473c-0.38385,0.32413 -0.78301,0.62796 -1.20083,0.90651c-0.6192,0.4128 -3.53953,1.87724 -4.21948,0.58435l-0.69908,-0.26215c-0.48815,-0.17015 -0.83842,-0.6345 -0.83842,-1.18066c0,-0.39737 0.18542,-0.75143 0.47446,-0.98039c-0.34274,-0.20752 -0.64289,-0.48614 -0.88729,-0.84983c-0.00301,-0.00448 0.67471,-1.34164 0.6955,-1.38618c0.21829,-0.46761 0.42094,-0.93079 0.6277,-1.38819c-0.02429,-0.18744 -0.01111,-0.35001 0.02729,-0.49071l-0.01709,0.01532c0.2108,-1.47557 -0.04568,-3.12302 0.53515,-4.52071c0.37525,-0.90298 1.95116,-1.63319 2.73291,-2.15378c2.42759,-1.6166 4.03002,-2.93394 7.04938,-2.93394c5.19375,0 9.97146,0.51707 14.05704,3.92173c0,0 0.07033,0.05861 0.15707,0.16314c0.18054,0.15311 0.27888,0.30764 0.27888,0.30764l0.11088,0.14976c0.31221,0.01869 0.59353,0.15197 0.80249,0.35835c0.44225,0.30153 0.53624,0.86548 0.53624,0.86548l0.1924,0.44432c0.06053,0.60533 0.12107,1.21067 0.1816,1.816c0,0 0.00108,0.01076 0.00203,0.03038c0.0379,0.14834 0.04643,0.31534 0.00422,0.49862c0.00341,1.44902 0.18344,2.29158 -0.08583,2.84889l0.07322,0.01046l-0.179,1.25301c-0.07792,0.61548 -0.6034,1.09142 -1.24004,1.09142c-0.34033,0 -0.6489,-0.13601 -0.87431,-0.35664c-0.5691,0.04239 -0.89472,-0.27464 -1.07007,-0.55747c-0.13486,-0.19954 -0.21362,-0.44012 -0.21362,-0.69909c0,-0.12623 0.01871,-0.24809 0.05351,-0.36296c-0.12555,-0.37512 -0.26103,-0.75338 -0.39746,-1.1343c-0.07142,-0.04697 -0.13773,-0.10106 -0.19794,-0.16126z" fill="#cc7a00" stroke="none" stroke-width="0.5" stroke-linecap="butt"/></g><g><path d="M231.66511,203.61049c-0.03845,-0.05769 0.53653,-2.69992 1.12817,-4.90546c0.0471,-0.1756 -1.85937,-0.34845 -1.82923,-0.51699c0.23362,-1.30611 0.0143,-2.3544 0.215,-2.43522c0.3657,-0.14726 9.95887,-0.29548 10.20688,0c0.27401,0.32646 0.0517,2.6954 -0.17857,2.78531c-0.2591,0.10117 -5.48755,0.38678 -5.55492,0.53597c-0.08101,0.1794 -0.95978,4.25012 -1.32311,4.53639c-0.42191,0.33243 -2.42738,0.35538 -2.66423,0z" fill="#929292" stroke="#484848" stroke-width="1" stroke-linecap="butt"/><path d="M240.93731,198.31099c-0.43794,-0.8039 -0.37094,-2.11722 0,-2.43555c0.10649,-0.09139 0.72626,-0.35567 0.85045,0c0.12419,0.35567 0.12901,2.3004 0,2.43555c-0.10998,0.11522 -0.67165,0.32821 -0.85045,0z" fill="#000000" stroke="none" stroke-width="0" stroke-linecap="butt"/><path d="M233.37075,196.58088l-0.72006,1.00809" fill="none" stroke="#1b1b1b" stroke-width="0.5" stroke-linecap="round"/><path d="M234.23483,196.61689l-0.72006,1.00809" fill="none" stroke="#1b1b1b" stroke-width="0.5" stroke-linecap="round"/><path d="M234.99089,196.68889l-0.72006,1.00808" fill="none" stroke="#1b1b1b" stroke-width="0.5" stroke-linecap="round"/><path d="M237.25909,199.0651c0,0 -0.15732,1.03479 -0.46548,1.37047c-0.35676,0.38861 -1.55069,0.82572 -1.55069,0.82572" fill="none" stroke="#484848" stroke-width="0.5" stroke-linecap="round"/><path d="M235.85497,199.35311l0.39604,0.75606" fill="none" stroke="#484848" stroke-width="0.5" stroke-linecap="round"/></g><path d="M230.40091,160.15603c-0.07906,-0.23717 0.15811,-0.31623 0.15811,-0.31623l0.26489,-0.08778c1.48293,-0.29862 2.48287,-1.01141 3.86771,-1.56466c2.15947,-1.36097 3.33427,-1.00609 5.77979,-1.02705c0,0 0.25,0 0.25,0.25c0,0.25 -0.25,0.25 -0.25,0.25c-2.39079,-0.0169 -3.46089,-0.32564 -5.55355,0.97295c-1.40699,0.56349 -2.45497,1.30215 -3.96562,1.60201l-0.23511,0.07887c0,0 -0.23717,0.07906 -0.31623,-0.15811z" fill="#b36c00" stroke="none" stroke-width="0.5" stroke-linecap="butt"/><path d="M227.72482,169.86807c-0.0411,-0.2466 0.2055,-0.28769 0.2055,-0.28769l0.02041,-0.00341c1.88395,-0.31399 3.78119,-0.49605 5.64586,-0.91603c2.48134,-0.82781 3.16786,-2.55092 4.50015,-4.55597c0,0 0.13867,-0.20802 0.34669,-0.06934c0.20801,0.13868 0.06934,0.34669 0.06934,0.34669c-1.41549,2.11545 -2.16017,3.88708 -4.78187,4.76025c-1.88189,0.42631 -3.79627,0.61066 -5.69798,0.9276l-0.0204,0.0034c0,0 -0.2466,0.0411 -0.2877,-0.2055z" fill="#b36c00" stroke="none" stroke-width="0.5" stroke-linecap="butt"/><path d="M228.80891,166.45568c-0.0454,-0.24585 0.20045,-0.29125 0.20045,-0.29125l0.44546,-0.08226c2.09964,-0.38772 3.60342,-0.77943 5.37793,-1.96324c0,0 0.20801,-0.13868 0.34669,0.06933c0.13868,0.20801 -0.06933,0.34669 -0.06933,0.34669c-1.83088,1.21972 -3.40251,1.63966 -5.56448,2.0389l-0.44547,0.08227c0,0 -0.24584,0.0454 -0.29124,-0.20045z" fill="#b36c00" stroke="none" stroke-width="0.5" stroke-linecap="butt"/><path d="M251.44295,161.93669c0.2236,-0.11181 0.33541,0.1118 0.33541,0.1118l0.02639,0.05279c0.54532,1.12417 0.16667,2.59158 0.16667,3.80901c0,0 0,0.25 -0.25,0.25c-0.25,0 -0.25,-0.25 -0.25,-0.25c0,-1.08884 0.39899,-2.5973 -0.11388,-3.58541l-0.0264,-0.05279c0,0 -0.1118,-0.2236 0.11181,-0.33541z" fill="#b36c00" stroke="none" stroke-width="0.5" stroke-linecap="butt"/><path d="M249.12555,157.8193c0.17433,-0.17919 0.35352,-0.00487 0.35352,-0.00487l0.18402,0.17943c1.45077,1.26121 -0.23336,4.04505 -1.68216,4.64856c0,0 -0.23212,0.09285 -0.32497,-0.13927c-0.09285,-0.23212 0.13927,-0.32497 0.13927,-0.32497c1.03431,-0.39165 2.76135,-2.94562 1.53698,-3.80946l-0.20178,-0.19589c0,0 -0.1792,-0.17433 -0.00487,-0.35352z" fill="#b36c00" stroke="none" stroke-width="0.5" stroke-linecap="butt"/><path d="M244.83114,157.46516c0.11181,-0.2236 0.33541,-0.11181 0.33541,-0.11181l0.23164,0.13017c1.53291,1.5443 0.6244,3.35637 -1.0381,4.46812c0,0 -0.20802,0.13868 -0.34669,-0.06933c-0.13868,-0.20801 0.06934,-0.34669 0.06934,-0.34669c1.40175,-0.9314 2.26495,-2.40385 0.96189,-3.69854l-0.10169,-0.0365c0,0 -0.22361,-0.11181 -0.11181,-0.33541z" fill="#b36c00" stroke="none" stroke-width="0.5" stroke-linecap="butt"/><path d="M241.88808,155.82697c0,-0.25 0.25,-0.25 0.25,-0.25l0.22201,0.04199c0.08334,0.05555 0.16666,0.11111 0.25,0.16666c2.10612,1.51457 -0.68788,4.88107 -1.15151,6.37041c0,0 -0.07906,0.23717 -0.31623,0.15811c-0.23717,-0.07906 -0.15811,-0.31622 -0.15811,-0.31622c0.36077,-1.03387 3.12616,-4.76331 1.34849,-5.79627c-0.08334,-0.05555 -0.16666,-0.11111 -0.25,-0.16666l0.05534,0.04198c0,0 -0.25,0 -0.25,-0.25z" fill="#b36c00" stroke="none" stroke-width="0.5" stroke-linecap="butt"/><path d="M229.34674,163.54897c-0.13868,-0.20801 0.06933,-0.34669 0.06933,-0.34669l0.27884,-0.18323c0.17598,-0.05503 0.33058,-0.17627 0.45927,-0.30832c2.09679,-1.18503 4.38063,-2.28388 6.90057,-2.30043c0,0 0.25,0 0.25,0.25c0,0.25 -0.25,0.25 -0.25,0.25c-2.41622,-0.01955 -4.59017,1.1048 -6.59943,2.19957c-0.15463,0.15115 -0.33669,0.28678 -0.54073,0.35834l-0.22116,0.1501c0,0 -0.20801,0.13868 -0.34669,-0.06934z" fill="#b36c00" stroke="none" stroke-width="0.5" stroke-linecap="butt"/></g></g></svg>