<svg version="1.1" xmlns="http://www.w3.org/2000/svg" xmlns:xlink="http://www.w3.org/1999/xlink" width="25.72894" height="65.5" viewBox="0,0,25.72894,65.5"><g transform="translate(-228,-154.5)"><g data-paper-data="{&quot;isPaintingLayer&quot;:true}" fill-rule="nonzero" stroke-linejoin="miter" stroke-miterlimit="10" stroke-dasharray="" stroke-dashoffset="0" style="mix-blend-mode: normal"><path d="M229.33421,219v-35.42632h22.39211v35.42632z" data-paper-data="{&quot;origPos&quot;:null}" fill="#ff0047" stroke="#00e6a1" stroke-width="2" stroke-linecap="butt"/><path d="M229,167.36447c0,-6.55256 5.31191,-11.86447 11.86447,-11.86447c6.55257,0 11.86447,5.31191 11.86447,11.86447c0,6.55257 -5.31191,11.86447 -11.86447,11.86447c-6.55257,0 -11.86447,-5.31191 -11.86447,-11.86447z" data-paper-data="{&quot;origPos&quot;:null}" fill="#ffffff" stroke="#e5e5e5" stroke-width="2" stroke-linecap="butt"/><path d="M247.04737,161.91963v9.35789" data-paper-data="{&quot;origPos&quot;:null}" fill="none" stroke="#003d5a" stroke-width="2" stroke-linecap="round"/><path d="M242.36842,162.18421v9.35789" data-paper-data="{&quot;origPos&quot;:null}" fill="none" stroke="#003d5a" stroke-width="2" stroke-linecap="round"/><path d="M228.58808,164.27361c0,0 0.26225,-2.1819 0.99903,-3.36507c0.65082,-1.04512 1.77874,-2.34465 1.77874,-2.34465h18.66389c0,0 1.49613,1.14985 1.95592,2.17029c0.40747,0.90432 1.26631,3.76165 1.26631,3.76165z" data-paper-data="{&quot;origPos&quot;:null}" fill="#ff0047" stroke="none" stroke-width="NaN" stroke-linecap="butt"/><path d="M230.42857,193.14286v-8.71429h20.14286v8.71429c0,0 -12.18094,7.85714 -17.14286,7.85714c-2.8991,0 -3,-7.85714 -3,-7.85714z" data-paper-data="{&quot;origPos&quot;:null}" fill="#00ffad" stroke="#00e6a1" stroke-width="1" stroke-linecap="butt"/><path d="M250.85714,209.14286v8.71428h-20.14286v-8.71428c0,0 12.18094,-7.85715 17.14286,-7.85715c2.89909,0 3,7.85715 3,7.85715z" data-paper-data="{&quot;origPos&quot;:null,&quot;index&quot;:null}" fill="#00ffad" stroke="#00e6a1" stroke-width="1" stroke-linecap="butt"/></g></g></svg>