<svg version="1.1" xmlns="http://www.w3.org/2000/svg" xmlns:xlink="http://www.w3.org/1999/xlink" width="49.76333" height="78.71055" viewBox="0,0,49.76333,78.71055"><g transform="translate(-203.96562,-141.28946)"><g data-paper-data="{&quot;isPaintingLayer&quot;:true}" fill-rule="nonzero" stroke-linejoin="miter" stroke-miterlimit="10" stroke-dasharray="" stroke-dashoffset="0" style="mix-blend-mode: normal"><path d="" data-paper-data="{&quot;origPos&quot;:null}" fill="#000000" stroke="none" stroke-width="0" stroke-linecap="butt"/><g><path d="M231.75001,215.5c0,0 -4.95485,-7.19835 -9.34708,-11.14188c-2.10566,-1.89055 -5.80497,-1.212 -7.56438,-3.42841c-2.76639,-3.48493 -2.33854,-9.67971 -2.33854,-9.67971" data-paper-data="{&quot;origPos&quot;:null}" fill="none" stroke="#fc0000" stroke-width="4" stroke-linecap="round"/><path d="M229.33422,219v-35.42632h22.39211v35.42632z" data-paper-data="{&quot;origPos&quot;:null}" fill="#000000" stroke="#000000" stroke-width="2" stroke-linecap="butt"/><path d="M229.00001,167.36447c0,-6.55256 5.31191,-11.86447 11.86447,-11.86447c6.55257,0 11.86447,5.31191 11.86447,11.86447c0,6.55257 -5.31191,11.86447 -11.86447,11.86447c-6.55257,0 -11.86447,-5.31191 -11.86447,-11.86447z" data-paper-data="{&quot;origPos&quot;:null}" fill="#fc0000" stroke="#e30000" stroke-width="2" stroke-linecap="butt"/><path d="M247.04738,171.5421v-9.35789" data-paper-data="{&quot;origPos&quot;:null}" fill="none" stroke="#1b0000" stroke-width="2" stroke-linecap="round"/><path d="M242.36843,171.5421v-9.35789" data-paper-data="{&quot;origPos&quot;:null}" fill="none" stroke="#1b0000" stroke-width="2" stroke-linecap="round"/><path d="M233.83421,158.54324c0,0 -2.08005,-1.16153 -2.64981,-2.26036c-0.48958,-0.94421 -0.71623,-1.56745 -0.85695,-2.62169c-0.09681,-0.72529 0.00676,-1.86796 0.00676,-1.86796c0,0 1.37381,2.05534 2.65928,3.11701c1.32014,1.0903 4.01729,2.39715 4.01729,2.39715z" data-paper-data="{&quot;origPos&quot;:null}" fill="#fc0000" stroke="#fc0000" stroke-width="2.5" stroke-linecap="round"/><path d="M213.50001,181l1.16667,8.25l-6.91667,-0.41666z" data-paper-data="{&quot;origPos&quot;:null}" fill="#fc0000" stroke="#fc0000" stroke-width="4" stroke-linecap="round"/><path d="M243.85306,157.9446c0,0 2.69715,-1.30684 4.01729,-2.39714c1.28547,-1.06167 2.65929,-3.11702 2.65929,-3.11702c0,0 0.10357,1.14267 0.00676,1.86796c-0.14073,1.05424 -0.36738,1.67748 -0.85695,2.62169c-0.56976,1.09883 -2.6498,2.26035 -2.6498,2.26035z" data-paper-data="{&quot;origPos&quot;:null,&quot;index&quot;:null}" fill="#fc0000" stroke="#fc0000" stroke-width="2.5" stroke-linecap="round"/><path d="M250.33335,183c0,0 -2.37481,8.0926 -4.16438,11.74604c-1.60125,3.26898 -2.03501,4.63191 -5.66896,4.42063c-3.49852,-0.20339 -2.85749,-5.51529 -4.17013,-8.7646c-1.48393,-3.6733 -4.16321,-7.56873 -4.16321,-7.56873" data-paper-data="{&quot;origPos&quot;:null}" fill="none" stroke="#e6c600" stroke-width="2.5" stroke-linecap="round"/><g data-paper-data="{&quot;origPos&quot;:null}"><path d="M241.8199,158.0408c-1.34203,0.52947 -2.88486,1.14008 -3.78141,0.06815c-2.90944,-3.47859 -6.00933,-9.94564 -6.00933,-9.94564l4.36081,3.04322l-0.08563,-4.48682l2.69576,3.38453l0.98912,-4.9407c0,0 4.35734,8.93138 4.56266,10.37566c0.20532,1.44428 -1.53207,2.0282 -2.73198,2.5016z" data-paper-data="{&quot;origPos&quot;:null,&quot;origRot&quot;:0}" fill="#e6c600" stroke="#e6c600" stroke-width="2.5" stroke-linecap="round"/><path d="M234.82228,153.79912c0,-0.55229 0.44771,-1 1,-1c0.55229,0 1,0.44771 1,1c0,0.55229 -0.44771,1 -1,1c-0.55229,0 -1,-0.44771 -1,-1z" fill="#e64848" stroke="none" stroke-width="0.5" stroke-linecap="butt"/><path d="M238.51459,154.02989c0,-0.55229 0.44771,-1 1,-1c0.55229,0 1,0.44771 1,1c0,0.55229 -0.44771,1 -1,1c-0.55229,0 -1,-0.44771 -1,-1z" fill="#e64848" stroke="none" stroke-width="0.5" stroke-linecap="butt"/><path d="M241.43766,151.64527c0,-0.55229 0.44771,-1 1,-1c0.55229,0 1,0.44771 1,1c0,0.55229 -0.44771,1 -1,1c-0.55229,0 -1,-0.44771 -1,-1z" fill="#e64848" stroke="none" stroke-width="0.5" stroke-linecap="butt"/></g><path d="M215.98421,199.43158c0,0 -0.09398,0.88325 -0.53817,1.44858c-0.41439,0.52741 -1.66183,1.35142 -1.66183,1.35142" data-paper-data="{&quot;origPos&quot;:null}" fill="none" stroke="#e6c600" stroke-width="2.5" stroke-linecap="round"/></g></g></g></svg>