<svg version="1.1" xmlns="http://www.w3.org/2000/svg" xmlns:xlink="http://www.w3.org/1999/xlink" width="27.32894" height="66.34805" viewBox="0,0,27.32894,66.34805"><g transform="translate(-227.33868,-153.65195)"><g data-paper-data="{&quot;isPaintingLayer&quot;:true}" fill-rule="nonzero" stroke-linejoin="miter" stroke-miterlimit="10" stroke-dasharray="" stroke-dashoffset="0" style="mix-blend-mode: normal"><path d="M233.7659,185.74459l-3.82443,-6.53082c0,0 1.6075,-2.15717 2.48171,-1.45328c0.87421,0.70389 3.82443,6.53082 3.82443,6.53082z" data-paper-data="{&quot;origRot&quot;:0,&quot;origPos&quot;:null}" fill="#331e00" stroke="#1a0f00" stroke-width="0.5" stroke-linecap="butt"/><path d="M231.61724,182.15458l2.66497,-1.5606l0.59303,1.01269l-2.66497,1.5606z" data-paper-data="{&quot;origRot&quot;:0,&quot;origPos&quot;:null}" fill="#f3d661" stroke="#d9bf57" stroke-width="0.5" stroke-linecap="butt"/><path d="M229.33421,219v-35.42632h22.39211v35.42632z" data-paper-data="{&quot;origPos&quot;:null}" fill="#000000" stroke="#000000" stroke-width="2" stroke-linecap="butt"/><path d="M229,167.36447c0,-6.55256 5.31191,-11.86447 11.86447,-11.86447c6.55257,0 11.86447,5.31191 11.86447,11.86447c0,6.55257 -5.31191,11.86447 -11.86447,11.86447c-6.55257,0 -11.86447,-5.31191 -11.86447,-11.86447z" data-paper-data="{&quot;origPos&quot;:null}" fill="#fff3da" stroke="#000000" stroke-width="2" stroke-linecap="butt"/><path d="M247.04737,162.18421v9.35789" data-paper-data="{&quot;origPos&quot;:null}" fill="none" stroke="#00815b" stroke-width="2" stroke-linecap="round"/><path d="M230.30905,180.04097l2.84144,-1.66394l0.6323,1.07975l-2.84144,1.66394z" data-paper-data="{&quot;origRot&quot;:0,&quot;origPos&quot;:null}" fill="#f3d661" stroke="#d9bf57" stroke-width="0.5" stroke-linecap="butt"/><path d="M242.36855,171.54211v-9.35789" data-paper-data="{&quot;origPos&quot;:null}" fill="none" stroke="#00815b" stroke-width="2" stroke-linecap="round"/><path d="M235.32989,207.77594l-0.56778,-1.69048l1.10988,-0.37277c-0.06919,0.15543 -0.08256,0.33623 -0.02412,0.51022c0.12378,0.36854 0.52289,0.56695 0.89142,0.44317c0.36854,-0.12378 0.56695,-0.52288 0.44317,-0.89142c-0.04824,-0.14361 -0.13827,-0.26138 -0.25202,-0.34432c0.49001,-0.06344 1.20078,-0.07353 1.34811,0.36514c0.2295,0.68329 -1.25819,1.41268 -1.25819,1.41268z" data-paper-data="{&quot;origPos&quot;:null,&quot;origRot&quot;:0}" fill="#b9b9b9" stroke="#929292" stroke-width="0.5" stroke-linecap="butt"/><path d="M234.42252,206.84308c-0.36978,-1.10094 -2.11998,-2.32835 -2.11998,-2.32835c0,0 3.23409,-0.52107 3.59721,-0.64303c1.17158,-0.3935 2.59921,-1.90573 2.59921,-1.90573c0,0 0.17883,2.80728 0.37218,3.38296c0.38243,1.13861 2.12927,2.55495 2.12927,2.55495c0,0 -1.91066,-0.15313 -3.60652,0.41645l-2.30304,2.08474c0,0 -0.25575,-2.33353 -0.66835,-3.56198zM236.73929,206.66607c0.36854,-0.12378 0.56695,-0.52288 0.44317,-0.89142c-0.12378,-0.36854 -0.52288,-0.56695 -0.89142,-0.44317c-0.36854,0.12378 -0.56695,0.52289 -0.44317,0.89142c0.12378,0.36854 0.52289,0.56695 0.89142,0.44317z" data-paper-data="{&quot;origPos&quot;:null,&quot;origRot&quot;:0}" fill="#d8d8d8" stroke="#bfbfbf" stroke-width="0.5" stroke-linecap="butt"/><path d="M228.01028,210.86068v-3.71428h25.14285v3.71428z" data-paper-data="{&quot;origPos&quot;:null}" fill="#1a0f00" stroke="none" stroke-width="NaN" stroke-linecap="butt"/><path d="M228.33868,167.31642c0,-6.99439 5.67008,-12.66447 12.66447,-12.66447c6.9944,0 12.66447,5.67008 12.66447,12.66447c0,6.9944 -5.67008,12.66447 -12.66447,12.66447c-6.9944,0 -12.66447,-5.67008 -12.66447,-12.66447zM250.78383,170.09327c1.47381,0 0.9387,-7.34633 0.24501,-8.64668c-1.13099,-2.12008 -9.72049,-1.80631 -11.07023,-1.21443c-1.47381,0.64629 -3.71836,2.00485 -3.79956,6.22313c-0.05645,2.93186 2.58784,3.06115 2.9544,3.33887c0.12218,0.09258 10.19659,0.29913 11.6704,0.29913z" data-paper-data="{&quot;origPos&quot;:null}" fill="#0e0e0e" stroke="#000000" stroke-width="2" stroke-linecap="butt"/></g></g></svg>