<svg version="1.1" xmlns="http://www.w3.org/2000/svg" xmlns:xlink="http://www.w3.org/1999/xlink" width="35.36666" height="73.49041" viewBox="0,0,35.36666,73.49041"><g transform="translate(-222.91666,-146.78028)"><g data-paper-data="{&quot;isPaintingLayer&quot;:true}" fill-rule="nonzero" stroke-linejoin="miter" stroke-miterlimit="10" stroke-dasharray="" stroke-dashoffset="0" style="mix-blend-mode: normal"><path d="M229.00013,167.36448c0,-6.55256 5.31191,-11.86447 11.86447,-11.86447c6.55257,0 11.86447,5.31191 11.86447,11.86447c0,6.55257 -5.31191,11.86447 -11.86447,11.86447c-6.55257,0 -11.86447,-5.31191 -11.86447,-11.86447z" data-paper-data="{&quot;origPos&quot;:null}" fill="#ffffff" stroke="#e7e7e7" stroke-width="2" stroke-linecap="butt"/><path d="M247.04751,162.18422v9.35789" data-paper-data="{&quot;origPos&quot;:null}" fill="none" stroke="#1b0000" stroke-width="2" stroke-linecap="round"/><path d="M242.36857,171.54211v-9.35789" data-paper-data="{&quot;origPos&quot;:null}" fill="none" stroke="#190000" stroke-width="2" stroke-linecap="round"/><path d="M240.8938,173.75626c0,-0.27614 0.22386,-0.5 0.5,-0.5c0.27614,0 0.5,0.22386 0.5,0.5c0,0.27614 -0.22386,0.5 -0.5,0.5c-0.27614,0 -0.5,-0.22386 -0.5,-0.5z" fill="#4700ff" stroke="none" stroke-width="0.5" stroke-linecap="butt"/><path d="M242.4813,174.28543c0,-0.27614 0.22386,-0.5 0.5,-0.5c0.27614,0 0.5,0.22386 0.5,0.5c0,0.27614 -0.22386,0.5 -0.5,0.5c-0.27614,0 -0.5,-0.22386 -0.5,-0.5z" fill="#4700ff" stroke="none" stroke-width="0.5" stroke-linecap="butt"/><path d="M242.4813,175.87293c0,-0.27614 0.22386,-0.5 0.5,-0.5c0.27614,0 0.5,0.22386 0.5,0.5c0,0.27614 -0.22386,0.5 -0.5,0.5c-0.27614,0 -0.5,-0.22386 -0.5,-0.5z" fill="#4700ff" stroke="none" stroke-width="0.5" stroke-linecap="butt"/><path d="M239.83545,175.87293c0,-0.27614 0.22386,-0.5 0.5,-0.5c0.27614,0 0.5,0.22386 0.5,0.5c0,0.27614 -0.22386,0.5 -0.5,0.5c-0.27614,0 -0.5,-0.22386 -0.5,-0.5z" fill="#4700ff" stroke="none" stroke-width="0.5" stroke-linecap="butt"/><path d="M244.06879,174.28543c0,-0.27614 0.22386,-0.5 0.5,-0.5c0.27614,0 0.5,0.22386 0.5,0.5c0,0.27614 -0.22386,0.5 -0.5,0.5c-0.27614,0 -0.5,-0.22386 -0.5,-0.5z" fill="#4700ff" stroke="none" stroke-width="0.5" stroke-linecap="butt"/><path d="M245.1271,173.75626c0,-0.27614 0.22386,-0.5 0.5,-0.5c0.27614,0 0.5,0.22386 0.5,0.5c0,0.27614 -0.22386,0.5 -0.5,0.5c-0.27614,0 -0.5,-0.22386 -0.5,-0.5z" fill="#4700ff" stroke="none" stroke-width="0.5" stroke-linecap="butt"/><path d="M246.45005,173.75626c0,-0.27614 0.22386,-0.5 0.5,-0.5c0.27614,0 0.5,0.22386 0.5,0.5c0,0.27614 -0.22386,0.5 -0.5,0.5c-0.27614,0 -0.5,-0.22386 -0.5,-0.5z" fill="#4700ff" stroke="none" stroke-width="0.5" stroke-linecap="butt"/><path d="M248.30212,174.02085c0,-0.27614 0.22386,-0.5 0.5,-0.5c0.27614,0 0.5,0.22386 0.5,0.5c0,0.27614 -0.22386,0.5 -0.5,0.5c-0.27614,0 -0.5,-0.22386 -0.5,-0.5z" fill="#4700ff" stroke="none" stroke-width="0.5" stroke-linecap="butt"/><path d="M245.39169,174.8146c0,-0.27614 0.22386,-0.5 0.5,-0.5c0.27614,0 0.5,0.22386 0.5,0.5c0,0.27614 -0.22386,0.5 -0.5,0.5c-0.27614,0 -0.5,-0.22386 -0.5,-0.5z" fill="#4700ff" stroke="none" stroke-width="0.5" stroke-linecap="butt"/><path d="M241.15835,177.46043c0,-0.27614 0.22386,-0.5 0.5,-0.5c0.27614,0 0.5,0.22386 0.5,0.5c0,0.27614 -0.22386,0.5 -0.5,0.5c-0.27614,0 -0.5,-0.22386 -0.5,-0.5z" fill="#4700ff" stroke="none" stroke-width="0.5" stroke-linecap="butt"/><path d="M244.33337,176.40209c0,-0.27614 0.22386,-0.5 0.5,-0.5c0.27614,0 0.5,0.22386 0.5,0.5c0,0.27614 -0.22386,0.5 -0.5,0.5c-0.27614,0 -0.5,-0.22386 -0.5,-0.5z" fill="#4700ff" stroke="none" stroke-width="0.5" stroke-linecap="butt"/><path d="M237.71878,173.49168c0,-0.27614 0.22386,-0.5 0.5,-0.5c0.27614,0 0.5,0.22386 0.5,0.5c0,0.27614 -0.22386,0.5 -0.5,0.5c-0.27614,0 -0.5,-0.22386 -0.5,-0.5z" fill="#4700ff" stroke="none" stroke-width="0.5" stroke-linecap="butt"/><path d="M237.98337,174.55001c0,-0.27614 0.22386,-0.5 0.5,-0.5c0.27614,0 0.5,0.22386 0.5,0.5c0,0.27614 -0.22386,0.5 -0.5,0.5c-0.27614,0 -0.5,-0.22386 -0.5,-0.5z" fill="#4700ff" stroke="none" stroke-width="0.5" stroke-linecap="butt"/><path d="M237.98337,176.66668c0,-0.27614 0.22386,-0.5 0.5,-0.5c0.27614,0 0.5,0.22386 0.5,0.5c0,0.27614 -0.22386,0.5 -0.5,0.5c-0.27614,0 -0.5,-0.22386 -0.5,-0.5z" fill="#4700ff" stroke="none" stroke-width="0.5" stroke-linecap="butt"/><path d="M235.86669,175.60834c0,-0.27614 0.22386,-0.5 0.5,-0.5c0.27614,0 0.5,0.22386 0.5,0.5c0,0.27614 -0.22386,0.5 -0.5,0.5c-0.27614,0 -0.5,-0.22386 -0.5,-0.5z" fill="#4700ff" stroke="none" stroke-width="0.5" stroke-linecap="butt"/><path d="M236.39587,174.02084c0,-0.27614 0.22386,-0.5 0.5,-0.5c0.27614,0 0.5,0.22386 0.5,0.5c0,0.27614 -0.22386,0.5 -0.5,0.5c-0.27614,0 -0.5,-0.22386 -0.5,-0.5z" fill="#4700ff" stroke="none" stroke-width="0.5" stroke-linecap="butt"/><path d="M233.48543,173.22709c0,-0.27614 0.22386,-0.5 0.5,-0.5c0.27614,0 0.5,0.22386 0.5,0.5c0,0.27614 -0.22386,0.5 -0.5,0.5c-0.27614,0 -0.5,-0.22386 -0.5,-0.5z" fill="#4700ff" stroke="none" stroke-width="0.5" stroke-linecap="butt"/><path d="M234.2792,171.37501c0,-0.27614 0.22386,-0.5 0.5,-0.5c0.27614,0 0.5,0.22386 0.5,0.5c0,0.27614 -0.22386,0.5 -0.5,0.5c-0.27614,0 -0.5,-0.22386 -0.5,-0.5z" fill="#4700ff" stroke="none" stroke-width="0.5" stroke-linecap="butt"/><path d="M234.01462,168.20001c0,-0.27614 0.22386,-0.5 0.5,-0.5c0.27614,0 0.5,0.22386 0.5,0.5c0,0.27614 -0.22386,0.5 -0.5,0.5c-0.27614,0 -0.5,-0.22386 -0.5,-0.5z" fill="#4700ff" stroke="none" stroke-width="0.5" stroke-linecap="butt"/><path d="M233.22085,170.58126c0,-0.27614 0.22386,-0.5 0.5,-0.5c0.27614,0 0.5,0.22386 0.5,0.5c0,0.27614 -0.22386,0.5 -0.5,0.5c-0.27614,0 -0.5,-0.22386 -0.5,-0.5z" fill="#4700ff" stroke="none" stroke-width="0.5" stroke-linecap="butt"/><path d="M235.86669,166.34793c0,-0.27614 0.22386,-0.5 0.5,-0.5c0.27614,0 0.5,0.22386 0.5,0.5c0,0.27614 -0.22386,0.5 -0.5,0.5c-0.27614,0 -0.5,-0.22386 -0.5,-0.5z" fill="#4700ff" stroke="none" stroke-width="0.5" stroke-linecap="butt"/><path d="M237.1896,170.05209c0,-0.27614 0.22386,-0.5 0.5,-0.5c0.27614,0 0.5,0.22386 0.5,0.5c0,0.27614 -0.22386,0.5 -0.5,0.5c-0.27614,0 -0.5,-0.22386 -0.5,-0.5z" fill="#4700ff" stroke="none" stroke-width="0.5" stroke-linecap="butt"/><path d="M235.86669,171.90418c0,-0.27614 0.22386,-0.5 0.5,-0.5c0.27614,0 0.5,0.22386 0.5,0.5c0,0.27614 -0.22386,0.5 -0.5,0.5c-0.27614,0 -0.5,-0.22386 -0.5,-0.5z" fill="#4700ff" stroke="none" stroke-width="0.5" stroke-linecap="butt"/><path d="M229.33431,219.27069v-35.42632h22.39211v35.42632z" data-paper-data="{&quot;origPos&quot;:null}" fill="#96b300" stroke="#819a00" stroke-width="2" stroke-linecap="butt"/><path d="M242.93042,191.25145l2.42815,-0.28179l0.4611,3.97333l-2.42815,0.28179z" data-paper-data="{&quot;origPos&quot;:null,&quot;origRot&quot;:0}" fill="#ffd600" stroke="#e5bf00" stroke-width="0.5" stroke-linecap="butt"/><path d="M244.20098,186.76901l-1.25558,-1.83864h3.0248l-1.65508,1.86608" data-paper-data="{&quot;origPos&quot;:null}" fill="#ffffff" stroke="#96b300" stroke-width="0" stroke-linecap="round"/><path d="M223.66666,206.30611v-11.90625h19.31458v11.90625z" fill="#999999" stroke="#7f7f7f" stroke-width="1.5" stroke-linecap="butt"/><path d="M243.24582,199.16236v-2.91042h12.17083v2.91042z" fill="#999999" stroke="#7f7f7f" stroke-width="1.5" stroke-linecap="butt"/><path d="M243.24582,203.13111v-2.91042h14.2875v2.91042z" fill="#999999" stroke="#7f7f7f" stroke-width="1.5" stroke-linecap="butt"/><path d="M243.51041,205.77694v-2.38125h11.64167v2.38125z" fill="#999999" stroke="#7f7f7f" stroke-width="1.5" stroke-linecap="butt"/><path d="M232.66251,190.43111v6.87917" fill="none" stroke="#7f7f7f" stroke-width="1.5" stroke-linecap="round"/><path d="M252.84581,158.03453c-3.1884,4.06368 -7.72922,3.58754 -11.96746,6.53996c-4.27607,2.97878 -6.16859,2.79619 -10.75907,5.26305c-5.94829,2.83446 -10.57415,-12.54171 -0.97659,-19.22754c0,0 3.77598,-4.27187 8.35959,-3.79214c6.99183,0.7318 18.92286,4.30866 15.34353,11.21667z" data-paper-data="{&quot;origPos&quot;:null,&quot;origRot&quot;:0}" fill="#96b300" stroke="none" stroke-width="0" stroke-linecap="butt"/><path d="M243.01305,179.7996l-5.00759,-13.53402" data-paper-data="{&quot;origPos&quot;:null}" fill="none" stroke="#e66a00" stroke-width="1" stroke-linecap="round"/><path d="M230.96777,168.97239l8.52643,1.89476" fill="none" stroke="#e66a00" stroke-width="1" stroke-linecap="round"/><path d="M249.15388,183.13461l-5.46153,7.92308l-10.46154,-8.07692" fill="none" stroke="#e5bf00" stroke-width="0.5" stroke-linecap="round"/><text transform="translate(243.81996,191.51756) rotate(82.51733) scale(0.02891,0.02891)" font-size="40" xml:space="preserve" data-paper-data="{&quot;origPos&quot;:null,&quot;origRot&quot;:0.77329}" fill="#e5bf00" fill-rule="nonzero" stroke="none" stroke-width="1" stroke-linecap="butt" stroke-linejoin="miter" stroke-miterlimit="10" stroke-dasharray="" stroke-dashoffset="0" font-family="Sans Serif" font-weight="normal" text-anchor="start" style="mix-blend-mode: normal"><tspan x="0" dy="0">Stevie</tspan></text></g></g></svg>